<svg width="1920" height="1080" viewBox="0 0 1920 1080" fill="none" xmlns="http://www.w3.org/2000/svg">
<g clip-path="url(#clip0_696_424)">
<rect width="1920" height="1080" fill="white"/>
<path d="M875.924 318.471C879.523 55.171 760.801 -78.5243 700.99 -112.459H1304.26C1349.85 -112.459 1719.44 -134.153 1898.54 -145L1999 354.73V1139.42C1853.22 1167.78 1494.39 1207.48 1225.29 1139.42C888.919 1054.35 871.426 647.595 875.924 318.471Z" fill="#3675FF"/>
<path d="M700.99 -112.459C760.801 -78.5243 879.523 55.171 875.924 318.471C871.426 647.595 888.919 1054.35 1225.29 1139.42C1494.39 1207.48 1853.22 1167.78 1999 1139.42V354.73L1898.54 -145C1719.44 -134.153 1349.85 -112.459 1304.26 -112.459C1258.68 -112.459 865.761 -112.459 675 -112.459H700.99Z" stroke="black" stroke-width="10"/>
</g>
<defs>
<clipPath id="clip0_696_424">
<rect width="1920" height="1080" fill="white"/>
</clipPath>
</defs>
</svg>
