<svg width="240" height="240" viewBox="0 0 240 240" fill="none" xmlns="http://www.w3.org/2000/svg">
<g clip-path="url(#clip0_92_4)">
<g clip-path="url(#clip1_92_4)">
<path d="M47.8306 163.215C48.6363 162.409 49.7507 161.935 50.9381 161.935H231.306C231.935 161.935 232.234 162.681 231.8 163.116L196.169 198.72C195.364 199.525 194.249 200 193.062 200H12.6937C12.0651 200 11.7655 199.253 12.2002 198.819L47.8306 163.215Z" fill="url(#paint0_linear_92_4)" stroke="black" stroke-width="6"/>
<path d="M12.2001 65.8844L47.8063 30.3041C48.7021 29.4539 49.8375 29 50.938 29H231.306C231.935 29 232.234 29.7466 231.8 30.1811L196.169 65.7855C195.363 66.5907 194.249 67.0654 193.062 67.0654H12.6936C12.0649 67.0654 11.7654 66.3188 12.2001 65.8844Z" fill="url(#paint1_linear_92_4)" stroke="black" stroke-width="6"/>
<path d="M193.062 95.0414C194.249 95.0414 195.364 95.5162 196.169 96.3213L231.8 131.926C232.234 132.36 231.935 133.107 231.306 133.107H50.9381C49.7507 133.107 48.6363 132.632 47.8306 131.827L12.2002 96.2225C11.7655 95.788 12.0651 95.0414 12.6937 95.0414H193.062Z" fill="url(#paint2_linear_92_4)" stroke="black" stroke-width="6"/>
</g>
<path d="M27 228C27.3136 226.771 27.9897 226.031 28.8688 225.036C33.8963 219.344 39.1713 213.923 44.0864 208.122C56.2674 193.743 67.9805 178.837 79.2382 163.744C89.0048 150.651 98.8491 137.636 108.694 124.598C116.607 114.12 123.275 103.011 131.565 92.8185C146.733 74.1708 165.014 58.4736 180.021 39.6352C186.879 31.0276 193.885 21.9862 200 13" stroke="black" stroke-width="25" stroke-linecap="round"/>
<path d="M32 15C34.075 15.9738 36.0027 17.8228 37.7601 19.1412C51.8644 29.7226 65.9499 40.1145 78.974 52.0483C95.687 67.3623 109.854 85.1198 121.84 104.326C133.599 123.168 142.971 142.974 155.865 161.19C159.385 166.162 160.254 171.788 162.965 177.087C169.398 189.662 180.44 198.617 189.622 209.059C192.13 211.911 193.89 215.234 196.32 218.098C198.651 220.846 200.975 222.738 204 225" stroke="black" stroke-width="25" stroke-linecap="round"/>
<path d="M27 228C27.3136 226.771 27.9897 226.031 28.8688 225.036C33.8963 219.344 39.1713 213.923 44.0864 208.122C56.2674 193.743 67.9805 178.837 79.2382 163.744C89.0048 150.651 98.8491 137.636 108.694 124.598C116.607 114.12 123.275 103.011 131.565 92.8185C146.733 74.1708 165.014 58.4736 180.021 39.6352C186.879 31.0276 193.885 21.9862 200 13" stroke="#FF0000" stroke-width="15" stroke-linecap="round"/>
<path d="M33 15C35.063 15.9738 36.9795 17.8228 38.7266 19.1412C52.7489 29.7226 66.7525 40.1145 79.7009 52.0483C96.3167 67.3623 110.401 85.1198 122.318 104.326C134.009 123.168 143.326 142.974 156.145 161.19C159.644 166.162 160.508 171.788 163.203 177.087C169.599 189.662 180.577 198.617 189.706 209.059C192.199 211.911 193.948 215.234 196.364 218.098C198.682 220.846 200.993 222.738 204 225" stroke="#FF0000" stroke-width="15" stroke-linecap="round"/>
</g>
<defs>
<linearGradient id="paint0_linear_92_4" x1="214.076" y1="4.73088" x2="89.3896" y2="243.729" gradientUnits="userSpaceOnUse">
<stop stop-color="#00FFA3"/>
<stop offset="1" stop-color="#DC1FFF"/>
</linearGradient>
<linearGradient id="paint1_linear_92_4" x1="159.494" y1="-23.7448" x2="34.8074" y2="215.254" gradientUnits="userSpaceOnUse">
<stop stop-color="#00FFA3"/>
<stop offset="1" stop-color="#DC1FFF"/>
</linearGradient>
<linearGradient id="paint2_linear_92_4" x1="186.611" y1="-9.59759" x2="61.9248" y2="229.401" gradientUnits="userSpaceOnUse">
<stop stop-color="#00FFA3"/>
<stop offset="1" stop-color="#DC1FFF"/>
</linearGradient>
<clipPath id="clip0_92_4">
<rect width="240" height="240" fill="white"/>
</clipPath>
<clipPath id="clip1_92_4">
<rect width="226" height="177" fill="white" transform="translate(9 26)"/>
</clipPath>
</defs>
</svg>
