<svg width="270" height="270" viewBox="0 0 270 270" fill="none" xmlns="http://www.w3.org/2000/svg">
<mask id="path-1-inside-1_97_26" fill="white">
<path d="M107.96 267.264C81.5829 261.872 57.4203 248.716 38.5769 229.486C19.7336 210.256 7.07034 185.832 2.21419 159.35C-2.64196 132.869 0.530824 105.54 11.3249 80.8754C22.119 56.2109 40.0412 35.3371 62.789 20.9361L135 135L107.96 267.264Z"/>
</mask>
<path d="M107.96 267.264C81.5829 261.872 57.4203 248.716 38.5769 229.486C19.7336 210.256 7.07034 185.832 2.21419 159.35C-2.64196 132.869 0.530824 105.54 11.3249 80.8754C22.119 56.2109 40.0412 35.3371 62.789 20.9361L135 135L107.96 267.264Z" fill="#EE0000" stroke="black" stroke-width="4" mask="url(#path-1-inside-1_97_26)"/>
<mask id="path-2-inside-2_97_26" fill="white">
<path d="M61.5401 21.7364C80.1665 9.65583 101.485 2.35537 123.606 0.481661C145.728 -1.39204 167.97 2.21884 188.363 10.9945C208.756 19.7701 226.67 33.4396 240.518 50.7921C254.366 68.1446 263.721 88.6446 267.754 110.476C271.787 132.308 270.373 154.797 263.639 175.952C256.904 197.106 245.057 216.274 229.145 231.756C213.233 247.238 193.749 258.557 172.418 264.711C151.087 270.864 128.567 271.662 106.854 267.033L135 135L61.5401 21.7364Z"/>
</mask>
<path d="M61.5401 21.7364C80.1665 9.65583 101.485 2.35537 123.606 0.481661C145.728 -1.39204 167.97 2.21884 188.363 10.9945C208.756 19.7701 226.67 33.4396 240.518 50.7921C254.366 68.1446 263.721 88.6446 267.754 110.476C271.787 132.308 270.373 154.797 263.639 175.952C256.904 197.106 245.057 216.274 229.145 231.756C213.233 247.238 193.749 258.557 172.418 264.711C151.087 270.864 128.567 271.662 106.854 267.033L135 135L61.5401 21.7364Z" fill="#0153FF" stroke="black" stroke-width="4" mask="url(#path-2-inside-2_97_26)"/>
<path d="M135 253C200.17 253 253 200.17 253 135C253 69.8304 200.17 17 135 17C69.8304 17 17 69.8304 17 135C17 200.17 69.8304 253 135 253Z" fill="white" stroke="black" stroke-width="2"/>
</svg>
