<svg width="702" height="40" viewBox="0 0 702 40" fill="none" xmlns="http://www.w3.org/2000/svg">
<path d="M24.4591 10.328C25.8271 10.328 26.9164 10.7713 27.7271 11.658C28.5378 12.5193 28.9431 13.71 28.9431 15.23C28.9431 15.7873 28.9178 16.218 28.8671 16.522L26.8151 31H22.0271L23.9651 17.358C24.0158 16.8513 24.0411 16.5093 24.0411 16.332C24.0411 15.572 23.8891 15.0527 23.5851 14.774C23.3064 14.47 22.9011 14.318 22.3691 14.318C20.9251 14.318 19.3671 15.9773 17.6951 19.296L16.0231 31H11.2351L13.1731 17.358C13.2238 16.8513 13.2491 16.5093 13.2491 16.332C13.2491 15.572 13.0971 15.0527 12.7931 14.774C12.5144 14.47 12.1091 14.318 11.5771 14.318C10.1331 14.318 8.57511 16.028 6.90311 19.448L5.30711 31H0.519109L3.33111 10.898H7.47311L7.28311 14.432C9.15778 11.696 11.2984 10.328 13.7051 10.328C14.8704 10.328 15.8458 10.67 16.6311 11.354C17.4418 12.038 17.9358 13.0007 18.1131 14.242C18.9744 13.0007 19.9498 12.038 21.0391 11.354C22.1284 10.67 23.2684 10.328 24.4591 10.328ZM50.2561 15.648C50.2561 18.232 49.0781 20.1067 46.7221 21.272C44.3661 22.4373 41.2121 23.2227 37.2601 23.628C37.3614 26.4147 38.6661 27.808 41.1741 27.808C42.0861 27.808 42.9601 27.6687 43.7961 27.39C44.6321 27.086 45.5061 26.6047 46.4181 25.946L48.2801 28.986C45.8481 30.7087 43.3021 31.57 40.6421 31.57C37.9567 31.57 35.9047 30.8353 34.4861 29.366C33.0674 27.8713 32.3581 25.8193 32.3581 23.21C32.3581 21.1833 32.7254 19.1947 33.4601 17.244C34.2201 15.268 35.4107 13.6213 37.0321 12.304C38.6787 10.9867 40.7687 10.328 43.3021 10.328C44.7714 10.328 46.0254 10.5687 47.0641 11.05C48.1281 11.5313 48.9261 12.1773 49.4581 12.988C49.9901 13.7987 50.2561 14.6853 50.2561 15.648ZM37.4881 20.398C40.1734 20.1447 42.1494 19.6507 43.4161 18.916C44.6827 18.156 45.3161 17.13 45.3161 15.838C45.3161 15.306 45.1387 14.8373 44.7841 14.432C44.4294 14.0013 43.8467 13.786 43.0361 13.786C41.4401 13.786 40.1861 14.4193 39.2741 15.686C38.3874 16.9527 37.7921 18.5233 37.4881 20.398ZM61.0249 10.328C63.7609 10.328 66.1042 11.1767 68.0549 12.874L65.8509 15.572C64.3309 14.4827 62.7222 13.938 61.0249 13.938C59.9862 13.938 59.1756 14.128 58.5929 14.508C58.0356 14.888 57.7569 15.4073 57.7569 16.066C57.7569 16.674 58.0229 17.1553 58.5549 17.51C59.0869 17.8393 60.1382 18.2573 61.7089 18.764C63.5582 19.3467 64.9262 20.1193 65.8129 21.082C66.6996 22.0193 67.1429 23.2607 67.1429 24.806C67.1429 26.1487 66.7756 27.3393 66.0409 28.378C65.3316 29.3913 64.3182 30.1767 63.0009 30.734C61.6836 31.2913 60.1509 31.57 58.4029 31.57C56.7309 31.57 55.2109 31.2787 53.8429 30.696C52.5002 30.1133 51.3856 29.366 50.4989 28.454L53.0069 25.832C54.6282 27.2253 56.4649 27.922 58.5169 27.922C59.7836 27.922 60.7209 27.6687 61.3289 27.162C61.9622 26.63 62.2789 26.022 62.2789 25.338C62.2789 24.806 62.1522 24.3753 61.8989 24.046C61.6709 23.6913 61.2782 23.3873 60.7209 23.134C60.1636 22.8553 59.3149 22.526 58.1749 22.146C56.3256 21.5633 54.9829 20.8287 54.1469 19.942C53.3362 19.03 52.9309 17.8647 52.9309 16.446C52.9309 15.382 53.2349 14.3813 53.8429 13.444C54.4762 12.5067 55.4009 11.7593 56.6169 11.202C57.8329 10.6193 59.3022 10.328 61.0249 10.328ZM78.5034 10.328C81.2394 10.328 83.5828 11.1767 85.5334 12.874L83.3294 15.572C81.8094 14.4827 80.2008 13.938 78.5034 13.938C77.4648 13.938 76.6541 14.128 76.0714 14.508C75.5141 14.888 75.2354 15.4073 75.2354 16.066C75.2354 16.674 75.5014 17.1553 76.0334 17.51C76.5654 17.8393 77.6168 18.2573 79.1874 18.764C81.0368 19.3467 82.4048 20.1193 83.2914 21.082C84.1781 22.0193 84.6214 23.2607 84.6214 24.806C84.6214 26.1487 84.2541 27.3393 83.5194 28.378C82.8101 29.3913 81.7968 30.1767 80.4794 30.734C79.1621 31.2913 77.6294 31.57 75.8814 31.57C74.2094 31.57 72.6894 31.2787 71.3214 30.696C69.9788 30.1133 68.8641 29.366 67.9774 28.454L70.4854 25.832C72.1068 27.2253 73.9434 27.922 75.9954 27.922C77.2621 27.922 78.1994 27.6687 78.8074 27.162C79.4408 26.63 79.7574 26.022 79.7574 25.338C79.7574 24.806 79.6308 24.3753 79.3774 24.046C79.1494 23.6913 78.7568 23.3873 78.1994 23.134C77.6421 22.8553 76.7934 22.526 75.6534 22.146C73.8041 21.5633 72.4614 20.8287 71.6254 19.942C70.8148 19.03 70.4094 17.8647 70.4094 16.446C70.4094 15.382 70.7134 14.3813 71.3214 13.444C71.9548 12.5067 72.8794 11.7593 74.0954 11.202C75.3114 10.6193 76.7808 10.328 78.5034 10.328ZM123.874 10.898L116.806 31H110.84L110.042 15.23L104.76 31H98.8319L97.2359 10.898H102.024L102.48 27.428L108.256 10.898H113.158L114.032 27.428L119.276 10.898H123.874ZM131.99 10.898L129.178 31H124.39L127.202 10.898H131.99ZM130.356 6.604C129.546 6.604 128.887 6.36333 128.38 5.882C127.874 5.37533 127.62 4.742 127.62 3.982C127.62 3.04467 127.937 2.272 128.57 1.664C129.204 1.03067 129.989 0.713998 130.926 0.713998C131.737 0.713998 132.396 0.967332 132.902 1.474C133.409 1.95533 133.662 2.58867 133.662 3.374C133.662 4.286 133.346 5.05867 132.712 5.692C132.079 6.3 131.294 6.604 130.356 6.604ZM140.97 24.958C140.92 25.4647 140.894 25.7813 140.894 25.908C140.894 26.516 141.021 26.9593 141.274 27.238C141.528 27.4913 141.933 27.618 142.49 27.618C143.2 27.618 144.061 27.3773 145.074 26.896L146.442 30.126C144.897 31.0887 143.212 31.57 141.388 31.57C139.691 31.57 138.374 31.1267 137.436 30.24C136.524 29.328 136.068 28.0487 136.068 26.402C136.068 25.946 136.106 25.452 136.182 24.92L137.664 14.394H134.548L135.042 10.898H138.348L139.602 6.338L143.63 5.882L142.946 10.898H147.582L146.556 14.394H142.452L140.97 24.958ZM162.486 10.328C163.98 10.328 165.146 10.7713 165.982 11.658C166.818 12.5193 167.236 13.7227 167.236 15.268C167.236 15.8253 167.21 16.256 167.16 16.56L165.108 31H160.32L162.258 17.358C162.308 16.8513 162.334 16.522 162.334 16.37C162.334 15.61 162.182 15.078 161.878 14.774C161.599 14.47 161.206 14.318 160.7 14.318C158.926 14.318 157.115 16.0407 155.266 19.486L153.708 31H148.92L152.872 2.88L157.698 2.386L155.988 14.432C156.798 13.1653 157.761 12.1647 158.876 11.43C159.99 10.6953 161.194 10.328 162.486 10.328ZM185.947 24.958C185.896 25.4647 185.871 25.7813 185.871 25.908C185.871 26.516 185.998 26.9593 186.251 27.238C186.504 27.4913 186.91 27.618 187.467 27.618C188.176 27.618 189.038 27.3773 190.051 26.896L191.419 30.126C189.874 31.0887 188.189 31.57 186.365 31.57C184.668 31.57 183.35 31.1267 182.413 30.24C181.501 29.328 181.045 28.0487 181.045 26.402C181.045 25.946 181.083 25.452 181.159 24.92L182.641 14.394H179.525L180.019 10.898H183.325L184.579 6.338L188.607 5.882L187.923 10.898H192.559L191.533 14.394H187.429L185.947 24.958ZM207.462 10.328C208.957 10.328 210.122 10.7713 210.958 11.658C211.794 12.5193 212.212 13.7227 212.212 15.268C212.212 15.8253 212.187 16.256 212.136 16.56L210.084 31H205.296L207.234 17.358C207.285 16.8513 207.31 16.522 207.31 16.37C207.31 15.61 207.158 15.078 206.854 14.774C206.575 14.47 206.183 14.318 205.676 14.318C203.903 14.318 202.091 16.0407 200.242 19.486L198.684 31H193.896L197.848 2.88L202.674 2.386L200.964 14.432C201.775 13.1653 202.737 12.1647 203.852 11.43C204.967 10.6953 206.17 10.328 207.462 10.328ZM233.576 15.648C233.576 18.232 232.398 20.1067 230.042 21.272C227.686 22.4373 224.532 23.2227 220.58 23.628C220.682 26.4147 221.986 27.808 224.494 27.808C225.406 27.808 226.28 27.6687 227.116 27.39C227.952 27.086 228.826 26.6047 229.738 25.946L231.6 28.986C229.168 30.7087 226.622 31.57 223.962 31.57C221.277 31.57 219.225 30.8353 217.806 29.366C216.388 27.8713 215.678 25.8193 215.678 23.21C215.678 21.1833 216.046 19.1947 216.78 17.244C217.54 15.268 218.731 13.6213 220.352 12.304C221.999 10.9867 224.089 10.328 226.622 10.328C228.092 10.328 229.346 10.5687 230.384 11.05C231.448 11.5313 232.246 12.1773 232.778 12.988C233.31 13.7987 233.576 14.6853 233.576 15.648ZM220.808 20.398C223.494 20.1447 225.47 19.6507 226.736 18.916C228.003 18.156 228.636 17.13 228.636 15.838C228.636 15.306 228.459 14.8373 228.104 14.432C227.75 14.0013 227.167 13.786 226.356 13.786C224.76 13.786 223.506 14.4193 222.594 15.686C221.708 16.9527 221.112 18.5233 220.808 20.398ZM257.88 10.328C259.831 10.328 261.338 11.012 262.402 12.38C263.492 13.748 264.036 15.686 264.036 18.194C264.036 20.3473 263.669 22.4373 262.934 24.464C262.225 26.4907 261.022 28.188 259.324 29.556C257.627 30.8987 255.423 31.57 252.712 31.57C251.42 31.57 250.166 31.4433 248.95 31.19C247.76 30.962 246.442 30.582 244.998 30.05L248.836 2.842L253.662 2.31L252.218 12.722C253.941 11.126 255.828 10.328 257.88 10.328ZM256.17 13.976C255.334 13.976 254.562 14.204 253.852 14.66C253.143 15.116 252.421 15.7493 251.686 16.56L250.204 27.39C251.218 27.7447 252.206 27.922 253.168 27.922C254.511 27.922 255.626 27.4153 256.512 26.402C257.399 25.3887 258.045 24.1347 258.45 22.64C258.856 21.1453 259.058 19.638 259.058 18.118C259.058 15.3567 258.096 13.976 256.17 13.976ZM272.323 31.57C270.753 31.57 269.537 31.1393 268.675 30.278C267.839 29.3913 267.421 28.1753 267.421 26.63C267.421 26.174 267.459 25.7053 267.535 25.224L269.549 10.898H274.337L272.399 24.616C272.349 25.1227 272.323 25.4773 272.323 25.68C272.323 26.4147 272.463 26.934 272.741 27.238C273.045 27.542 273.489 27.694 274.071 27.694C274.958 27.694 275.794 27.3393 276.579 26.63C277.39 25.9207 278.188 24.9833 278.973 23.818L280.797 10.898H285.585L282.773 31H278.631L278.821 27.694C277.884 28.9353 276.883 29.898 275.819 30.582C274.755 31.2407 273.59 31.57 272.323 31.57ZM293.806 26.25L293.768 26.668C293.768 27.0227 293.844 27.276 293.996 27.428C294.148 27.58 294.376 27.656 294.68 27.656C294.933 27.656 295.313 27.58 295.82 27.428L296.542 30.848C295.503 31.3293 294.389 31.57 293.198 31.57C291.855 31.57 290.817 31.2153 290.082 30.506C289.347 29.7713 288.98 28.7073 288.98 27.314C288.98 26.782 289.005 26.364 289.056 26.06L292.324 2.842L297.188 2.31L293.806 26.25ZM304.753 26.25L304.715 26.668C304.715 27.0227 304.791 27.276 304.943 27.428C305.095 27.58 305.323 27.656 305.627 27.656C305.881 27.656 306.261 27.58 306.767 27.428L307.489 30.848C306.451 31.3293 305.336 31.57 304.145 31.57C302.803 31.57 301.764 31.2153 301.029 30.506C300.295 29.7713 299.927 28.7073 299.927 27.314C299.927 26.782 299.953 26.364 300.003 26.06L303.271 2.842L308.135 2.31L304.753 26.25ZM313.035 25.414C313.821 25.414 314.467 25.68 314.973 26.212C315.505 26.7187 315.771 27.3647 315.771 28.15C315.771 28.682 315.67 29.214 315.467 29.746C315.265 30.2527 314.897 30.9873 314.365 31.95L311.135 37.536H308.133L310.679 30.962C310.021 30.43 309.691 29.7207 309.691 28.834C309.691 27.8967 310.008 27.0987 310.641 26.44C311.3 25.756 312.098 25.414 313.035 25.414ZM340.144 10.328C342.779 10.328 345.338 10.974 347.82 12.266L345.882 25.756C345.832 26.212 345.806 26.5033 345.806 26.63C345.806 27.0607 345.882 27.4027 346.034 27.656C346.212 27.9093 346.516 28.1247 346.946 28.302L345.578 31.494C343.222 31.2407 341.842 30.126 341.436 28.15C339.764 30.43 337.763 31.57 335.432 31.57C333.38 31.57 331.784 30.8607 330.644 29.442C329.53 28.0233 328.972 26.1107 328.972 23.704C328.972 21.6267 329.352 19.562 330.112 17.51C330.898 15.458 332.126 13.748 333.798 12.38C335.47 11.012 337.586 10.328 340.144 10.328ZM340.068 13.9C338.675 13.9 337.522 14.4067 336.61 15.42C335.698 16.408 335.027 17.662 334.596 19.182C334.191 20.6767 333.988 22.184 333.988 23.704C333.988 26.4907 334.913 27.884 336.762 27.884C337.624 27.884 338.409 27.618 339.118 27.086C339.828 26.5287 340.562 25.7307 341.322 24.692L342.766 14.432C341.956 14.0773 341.056 13.9 340.068 13.9ZM364.437 10.328C365.881 10.328 367.009 10.7713 367.819 11.658C368.655 12.5193 369.073 13.7227 369.073 15.268C369.073 15.6733 369.035 16.1293 368.959 16.636L366.945 31H362.157L364.095 17.358C364.146 16.902 364.171 16.5853 364.171 16.408C364.171 15.648 364.019 15.116 363.715 14.812C363.411 14.4827 362.993 14.318 362.461 14.318C360.739 14.318 358.978 16.0407 357.179 19.486L355.545 31H350.757L353.569 10.898H357.711L357.521 14.622C359.497 11.7593 361.803 10.328 364.437 10.328ZM392.985 2.88L389.033 31H384.815L384.853 27.922C383.257 30.354 381.243 31.57 378.811 31.57C376.759 31.57 375.188 30.8607 374.099 29.442C373.009 27.998 372.465 26.022 372.465 23.514C372.465 21.538 372.794 19.5367 373.453 17.51C374.137 15.4833 375.188 13.786 376.607 12.418C378.051 11.0247 379.849 10.328 382.003 10.328C383.979 10.328 385.587 11.0627 386.829 12.532L388.273 2.386L392.985 2.88ZM382.991 13.976C381.673 13.976 380.597 14.4953 379.761 15.534C378.95 16.5727 378.367 17.8393 378.013 19.334C377.658 20.8033 377.481 22.2473 377.481 23.666C377.481 26.478 378.393 27.884 380.217 27.884C381.179 27.884 382.053 27.5293 382.839 26.82C383.624 26.1107 384.435 25.0973 385.271 23.78L386.373 15.876C385.917 15.2427 385.41 14.774 384.853 14.47C384.321 14.1407 383.7 13.976 382.991 13.976ZM413.737 31.114C412.648 33.5713 411.166 35.484 409.291 36.852C407.417 38.2453 405.048 39.056 402.185 39.284L402.033 35.75C403.984 35.446 405.453 34.952 406.441 34.268C407.455 33.584 408.379 32.4947 409.215 31H407.505L404.009 10.898H409.025L411.001 27.656L417.841 10.898H422.819L413.737 31.114ZM430.806 31.57C428.222 31.57 426.221 30.8227 424.802 29.328C423.409 27.8333 422.712 25.756 422.712 23.096C422.712 21.12 423.067 19.1567 423.776 17.206C424.511 15.2553 425.689 13.6213 427.31 12.304C428.932 10.9867 431.009 10.328 433.542 10.328C436.126 10.328 438.115 11.088 439.508 12.608C440.927 14.1027 441.636 16.1547 441.636 18.764C441.636 20.74 441.282 22.7033 440.572 24.654C439.863 26.6047 438.698 28.2513 437.076 29.594C435.455 30.9113 433.365 31.57 430.806 31.57ZM431.072 27.884C432.466 27.884 433.58 27.3647 434.416 26.326C435.252 25.262 435.835 23.9953 436.164 22.526C436.494 21.0567 436.658 19.6253 436.658 18.232C436.658 15.42 435.531 14.014 433.276 14.014C431.883 14.014 430.768 14.5333 429.932 15.572C429.096 16.5853 428.501 17.814 428.146 19.258C427.817 20.702 427.652 22.108 427.652 23.476C427.652 26.4147 428.792 27.884 431.072 27.884ZM450.003 31.57C448.432 31.57 447.216 31.1393 446.355 30.278C445.519 29.3913 445.101 28.1753 445.101 26.63C445.101 26.174 445.139 25.7053 445.215 25.224L447.229 10.898H452.017L450.079 24.616C450.028 25.1227 450.003 25.4773 450.003 25.68C450.003 26.4147 450.142 26.934 450.421 27.238C450.725 27.542 451.168 27.694 451.751 27.694C452.638 27.694 453.474 27.3393 454.259 26.63C455.07 25.9207 455.868 24.9833 456.653 23.818L458.477 10.898H463.265L460.453 31H456.311L456.501 27.694C455.564 28.9353 454.563 29.898 453.499 30.582C452.435 31.2407 451.27 31.57 450.003 31.57ZM486.731 10.328C489.442 10.328 492.013 10.974 494.445 12.266L491.823 29.936C491.342 33.28 490.278 35.6867 488.631 37.156C487.01 38.6253 484.755 39.36 481.867 39.36C480.676 39.36 479.422 39.17 478.105 38.79C476.813 38.41 475.648 37.9033 474.609 37.27L476.281 33.888C477.117 34.3693 478.004 34.7493 478.941 35.028C479.904 35.332 480.841 35.484 481.753 35.484C483.172 35.484 484.35 35.1293 485.287 34.42C486.224 33.736 486.832 32.3933 487.111 30.392L487.415 28.188C486.68 29.0493 485.844 29.7333 484.907 30.24C483.97 30.7467 482.969 31 481.905 31C479.853 31 478.257 30.3033 477.117 28.91C475.977 27.5167 475.407 25.6547 475.407 23.324C475.407 21.2213 475.8 19.182 476.585 17.206C477.37 15.23 478.612 13.596 480.309 12.304C482.006 10.9867 484.147 10.328 486.731 10.328ZM486.655 13.9C485.236 13.9 484.058 14.3687 483.121 15.306C482.184 16.2433 481.5 17.4213 481.069 18.84C480.638 20.2587 480.423 21.728 480.423 23.248C480.423 24.6667 480.676 25.7053 481.183 26.364C481.69 26.9973 482.386 27.314 483.273 27.314C484.134 27.314 484.932 27.0353 485.667 26.478C486.427 25.8953 487.174 25.0973 487.909 24.084L489.429 14.432C488.948 14.2293 488.492 14.09 488.061 14.014C487.656 13.938 487.187 13.9 486.655 13.9ZM515.274 15.648C515.274 18.232 514.096 20.1067 511.74 21.272C509.384 22.4373 506.23 23.2227 502.278 23.628C502.379 26.4147 503.684 27.808 506.192 27.808C507.104 27.808 507.978 27.6687 508.814 27.39C509.65 27.086 510.524 26.6047 511.436 25.946L513.298 28.986C510.866 30.7087 508.32 31.57 505.66 31.57C502.974 31.57 500.922 30.8353 499.504 29.366C498.085 27.8713 497.376 25.8193 497.376 23.21C497.376 21.1833 497.743 19.1947 498.478 17.244C499.238 15.268 500.428 13.6213 502.05 12.304C503.696 10.9867 505.786 10.328 508.32 10.328C509.789 10.328 511.043 10.5687 512.082 11.05C513.146 11.5313 513.944 12.1773 514.476 12.988C515.008 13.7987 515.274 14.6853 515.274 15.648ZM502.506 20.398C505.191 20.1447 507.167 19.6507 508.434 18.916C509.7 18.156 510.334 17.13 510.334 15.838C510.334 15.306 510.156 14.8373 509.802 14.432C509.447 14.0013 508.864 13.786 508.054 13.786C506.458 13.786 505.204 14.4193 504.292 15.686C503.405 16.9527 502.81 18.5233 502.506 20.398ZM523.382 24.958C523.332 25.4647 523.306 25.7813 523.306 25.908C523.306 26.516 523.433 26.9593 523.686 27.238C523.94 27.4913 524.345 27.618 524.902 27.618C525.612 27.618 526.473 27.3773 527.486 26.896L528.854 30.126C527.309 31.0887 525.624 31.57 523.8 31.57C522.103 31.57 520.786 31.1267 519.848 30.24C518.936 29.328 518.48 28.0487 518.48 26.402C518.48 25.946 518.518 25.452 518.594 24.92L520.076 14.394H516.96L517.454 10.898H520.76L522.014 6.338L526.042 5.882L525.358 10.898H529.994L528.968 14.394H524.864L523.382 24.958ZM546.539 24.958C546.488 25.4647 546.463 25.7813 546.463 25.908C546.463 26.516 546.589 26.9593 546.843 27.238C547.096 27.4913 547.501 27.618 548.059 27.618C548.768 27.618 549.629 27.3773 550.643 26.896L552.011 30.126C550.465 31.0887 548.781 31.57 546.957 31.57C545.259 31.57 543.942 31.1267 543.005 30.24C542.093 29.328 541.637 28.0487 541.637 26.402C541.637 25.946 541.675 25.452 541.751 24.92L543.233 14.394H540.117L540.611 10.898H543.917L545.171 6.338L549.199 5.882L548.515 10.898H553.151L552.125 14.394H548.021L546.539 24.958ZM568.054 10.328C569.549 10.328 570.714 10.7713 571.55 11.658C572.386 12.5193 572.804 13.7227 572.804 15.268C572.804 15.8253 572.779 16.256 572.728 16.56L570.676 31H565.888L567.826 17.358C567.877 16.8513 567.902 16.522 567.902 16.37C567.902 15.61 567.75 15.078 567.446 14.774C567.167 14.47 566.775 14.318 566.268 14.318C564.495 14.318 562.683 16.0407 560.834 19.486L559.276 31H554.488L558.44 2.88L563.266 2.386L561.556 14.432C562.367 13.1653 563.329 12.1647 564.444 11.43C565.559 10.6953 566.762 10.328 568.054 10.328ZM594.168 15.648C594.168 18.232 592.99 20.1067 590.634 21.272C588.278 22.4373 585.124 23.2227 581.172 23.628C581.274 26.4147 582.578 27.808 585.086 27.808C585.998 27.808 586.872 27.6687 587.708 27.39C588.544 27.086 589.418 26.6047 590.33 25.946L592.192 28.986C589.76 30.7087 587.214 31.57 584.554 31.57C581.869 31.57 579.817 30.8353 578.398 29.366C576.98 27.8713 576.27 25.8193 576.27 23.21C576.27 21.1833 576.638 19.1947 577.372 17.244C578.132 15.268 579.323 13.6213 580.944 12.304C582.591 10.9867 584.681 10.328 587.214 10.328C588.684 10.328 589.938 10.5687 590.976 11.05C592.04 11.5313 592.838 12.1773 593.37 12.988C593.902 13.7987 594.168 14.6853 594.168 15.648ZM581.4 20.398C584.086 20.1447 586.062 19.6507 587.328 18.916C588.595 18.156 589.228 17.13 589.228 15.838C589.228 15.306 589.051 14.8373 588.696 14.432C588.342 14.0013 587.759 13.786 586.948 13.786C585.352 13.786 584.098 14.4193 583.186 15.686C582.3 16.9527 581.704 18.5233 581.4 20.398ZM619.042 10.328C620.537 10.328 621.702 10.7713 622.538 11.658C623.374 12.5193 623.792 13.7227 623.792 15.268C623.792 15.8253 623.767 16.256 623.716 16.56L621.664 31H616.876L618.814 17.358C618.865 16.8513 618.89 16.522 618.89 16.37C618.89 15.61 618.738 15.078 618.434 14.774C618.155 14.47 617.763 14.318 617.256 14.318C615.483 14.318 613.671 16.0407 611.822 19.486L610.264 31H605.476L609.428 2.88L614.254 2.386L612.544 14.432C613.355 13.1653 614.317 12.1647 615.432 11.43C616.547 10.6953 617.75 10.328 619.042 10.328ZM635.39 31.57C632.806 31.57 630.805 30.8227 629.386 29.328C627.993 27.8333 627.296 25.756 627.296 23.096C627.296 21.12 627.651 19.1567 628.36 17.206C629.095 15.2553 630.273 13.6213 631.894 12.304C633.516 10.9867 635.593 10.328 638.126 10.328C640.71 10.328 642.699 11.088 644.092 12.608C645.511 14.1027 646.22 16.1547 646.22 18.764C646.22 20.74 645.866 22.7033 645.156 24.654C644.447 26.6047 643.282 28.2513 641.66 29.594C640.039 30.9113 637.949 31.57 635.39 31.57ZM635.656 27.884C637.05 27.884 638.164 27.3647 639 26.326C639.836 25.262 640.419 23.9953 640.748 22.526C641.078 21.0567 641.242 19.6253 641.242 18.232C641.242 15.42 640.115 14.014 637.86 14.014C636.467 14.014 635.352 14.5333 634.516 15.572C633.68 16.5853 633.085 17.814 632.73 19.258C632.401 20.702 632.236 22.108 632.236 23.476C632.236 26.4147 633.376 27.884 635.656 27.884ZM661.769 10.366C662.428 10.366 663.099 10.4673 663.783 10.67L662.377 15.344C661.769 15.192 661.212 15.116 660.705 15.116C659.514 15.116 658.501 15.6227 657.665 16.636C656.829 17.6493 656.069 19.1313 655.385 21.082L653.979 31H649.191L652.003 10.898H656.145L655.993 14.812C656.728 13.3427 657.589 12.2407 658.577 11.506C659.565 10.746 660.629 10.366 661.769 10.366ZM677.566 10.328C679.01 10.328 680.138 10.7713 680.948 11.658C681.784 12.5193 682.202 13.7227 682.202 15.268C682.202 15.6733 682.164 16.1293 682.088 16.636L680.074 31H675.286L677.224 17.358C677.275 16.902 677.3 16.5853 677.3 16.408C677.3 15.648 677.148 15.116 676.844 14.812C676.54 14.4827 676.122 14.318 675.59 14.318C673.868 14.318 672.107 16.0407 670.308 19.486L668.674 31H663.886L666.698 10.898H670.84L670.65 14.622C672.626 11.7593 674.932 10.328 677.566 10.328ZM694.334 10.328C697.07 10.328 699.413 11.1767 701.364 12.874L699.16 15.572C697.64 14.4827 696.031 13.938 694.334 13.938C693.295 13.938 692.484 14.128 691.902 14.508C691.344 14.888 691.066 15.4073 691.066 16.066C691.066 16.674 691.332 17.1553 691.864 17.51C692.396 17.8393 693.447 18.2573 695.018 18.764C696.867 19.3467 698.235 20.1193 699.122 21.082C700.008 22.0193 700.452 23.2607 700.452 24.806C700.452 26.1487 700.084 27.3393 699.35 28.378C698.64 29.3913 697.627 30.1767 696.31 30.734C694.992 31.2913 693.46 31.57 691.712 31.57C690.04 31.57 688.52 31.2787 687.152 30.696C685.809 30.1133 684.694 29.366 683.807 28.454L686.316 25.832C687.937 27.2253 689.774 27.922 691.826 27.922C693.092 27.922 694.03 27.6687 694.638 27.162C695.271 26.63 695.588 26.022 695.588 25.338C695.588 24.806 695.461 24.3753 695.208 24.046C694.98 23.6913 694.587 23.3873 694.03 23.134C693.472 22.8553 692.624 22.526 691.484 22.146C689.634 21.5633 688.292 20.8287 687.456 19.942C686.645 19.03 686.24 17.8647 686.24 16.446C686.24 15.382 686.544 14.3813 687.152 13.444C687.785 12.5067 688.71 11.7593 689.926 11.202C691.142 10.6193 692.611 10.328 694.334 10.328Z" fill="black"/>
</svg>
